<?xml version="1.0" encoding="UTF-8" standalone="no"?>
<!DOCTYPE svg PUBLIC "-//W3C//DTD SVG 1.1//EN" "http://www.w3.org/Graphics/SVG/1.1/DTD/svg11.dtd">
<svg width="100%" height="100%" viewBox="0 0 1024 1024" version="1.1" xmlns="http://www.w3.org/2000/svg" xmlns:xlink="http://www.w3.org/1999/xlink" xml:space="preserve" xmlns:serif="http://www.serif.com/" style="fill-rule:evenodd;clip-rule:evenodd;stroke-linejoin:round;stroke-miterlimit:2;">
    <g transform="matrix(1.19565,0,0,1.19565,-109.665,-88.2879)">
        <g transform="matrix(1.30053,0,-2.52236e-32,1.28109,212.628,84.3332)">
            <path d="M381.172,327.652C381.172,407.554 316.168,472.55 236.274,472.55C156.379,472.55 91.378,407.554 91.378,327.652C91.378,270.563 125.319,218.84 176.883,195.625L176.883,31.327L152.739,31.327C144.082,31.327 137.067,24.317 137.067,15.666C137.067,7.015 144.083,0.004 152.739,0.004L192.544,0.004C201.19,0.004 208.209,7.015 208.209,15.666L208.209,206.174C208.209,212.781 204.06,218.669 197.852,220.915C152.909,237.102 122.712,279.997 122.712,327.662C122.712,335.72 123.587,343.564 125.182,351.154L347.369,351.154C348.973,343.564 349.838,335.719 349.838,327.662C349.838,280.538 320.097,237.812 275.834,221.33C269.702,219.049 265.641,213.194 265.641,206.649L265.641,15.661C265.64,7.01 272.656,0 281.312,0L319.179,0C327.823,0 334.839,7.01 334.839,15.661C334.839,24.312 327.822,31.322 319.179,31.322L296.972,31.322L296.972,196.213C347.76,219.711 381.172,271.214 381.172,327.652ZM203.653,300.244C210.13,300.244 215.396,305.513 215.396,311.992C215.396,318.472 210.134,323.745 203.653,323.745C197.168,323.745 191.897,318.476 191.897,311.992C191.897,305.512 197.168,300.244 203.653,300.244ZM203.653,308.074C201.494,308.074 199.734,309.825 199.734,311.992C199.734,314.148 201.494,315.904 203.653,315.904C205.808,315.904 207.557,314.148 207.557,311.992C207.557,309.83 205.809,308.074 203.653,308.074ZM219.956,261.08C219.956,252.084 227.282,244.763 236.273,244.763C245.277,244.763 252.607,252.084 252.607,261.08C252.607,270.082 245.277,277.403 236.273,277.403C227.282,277.403 219.956,270.082 219.956,261.08ZM227.779,261.08C227.779,265.764 231.59,269.573 236.273,269.573C240.962,269.573 244.768,265.763 244.768,261.08C244.768,256.401 240.962,252.593 236.273,252.593C231.59,252.592 227.779,256.396 227.779,261.08Z" style="fill:rgb(147,197,253);fill-rule:nonzero;"/>
        </g>
        <path d="M646.792,111.474C813.59,165.119 934.431,321.65 934.431,506.182C934.431,734.961 748.692,920.701 519.912,920.701C291.133,920.701 105.394,734.961 105.394,506.182C105.394,321.927 225.873,165.589 392.283,111.716C395.252,119.181 402.632,124.466 411.269,124.466L442.669,124.466L442.669,334.947C375.609,364.688 331.467,430.95 331.467,504.086C331.467,606.448 416.003,689.714 519.909,689.714C623.814,689.714 708.353,606.448 708.353,504.086C708.353,431.784 664.9,365.804 598.849,335.7L598.849,124.46L627.729,124.46C636.443,124.46 643.886,119.063 646.792,111.474Z" style="fill:rgb(239,68,68);"/>
    </g>
</svg>
