<?xml version="1.0" encoding="UTF-8" standalone="no"?>
<!DOCTYPE svg PUBLIC "-//W3C//DTD SVG 1.1//EN" "http://www.w3.org/Graphics/SVG/1.1/DTD/svg11.dtd">
<svg width="100%" height="100%" viewBox="0 0 975 166" version="1.1" xmlns="http://www.w3.org/2000/svg" xmlns:xlink="http://www.w3.org/1999/xlink" xml:space="preserve" xmlns:serif="http://www.serif.com/" style="fill-rule:evenodd;clip-rule:evenodd;stroke-linejoin:round;stroke-miterlimit:2;">
    <g transform="matrix(1,0,0,1,-27.9557,-724.543)">
        <g transform="matrix(0.675589,0,0,0.675589,352.569,219.627)">
            <g transform="matrix(1,0,0,1,-622.135,253.369)">
                <g transform="matrix(0.293594,0,0,0.293594,110.704,469.242)">
                    <g transform="matrix(1.30053,0,-2.52236e-32,1.28109,212.628,84.3332)">
                        <path d="M381.172,327.652C381.172,407.554 316.168,472.55 236.274,472.55C156.379,472.55 91.378,407.554 91.378,327.652C91.378,270.563 125.319,218.84 176.883,195.625L176.883,31.327L152.739,31.327C144.082,31.327 137.067,24.317 137.067,15.666C137.067,7.015 144.083,0.004 152.739,0.004L192.544,0.004C201.19,0.004 208.209,7.015 208.209,15.666L208.209,206.174C208.209,212.781 204.06,218.669 197.852,220.915C152.909,237.102 122.712,279.997 122.712,327.662C122.712,335.72 123.587,343.564 125.182,351.154L347.369,351.154C348.973,343.564 349.838,335.719 349.838,327.662C349.838,280.538 320.097,237.812 275.834,221.33C269.702,219.049 265.641,213.194 265.641,206.649L265.641,15.661C265.64,7.01 272.656,0 281.312,0L319.179,0C327.823,0 334.839,7.01 334.839,15.661C334.839,24.312 327.822,31.322 319.179,31.322L296.972,31.322L296.972,196.213C347.76,219.711 381.172,271.214 381.172,327.652ZM203.653,300.244C210.13,300.244 215.396,305.513 215.396,311.992C215.396,318.472 210.134,323.745 203.653,323.745C197.168,323.745 191.897,318.476 191.897,311.992C191.897,305.512 197.168,300.244 203.653,300.244ZM203.653,308.074C201.494,308.074 199.734,309.825 199.734,311.992C199.734,314.148 201.494,315.904 203.653,315.904C205.808,315.904 207.557,314.148 207.557,311.992C207.557,309.83 205.809,308.074 203.653,308.074ZM219.956,261.08C219.956,252.084 227.282,244.763 236.273,244.763C245.277,244.763 252.607,252.084 252.607,261.08C252.607,270.082 245.277,277.403 236.273,277.403C227.282,277.403 219.956,270.082 219.956,261.08ZM227.779,261.08C227.779,265.764 231.59,269.573 236.273,269.573C240.962,269.573 244.768,265.763 244.768,261.08C244.768,256.401 240.962,252.593 236.273,252.593C231.59,252.592 227.779,256.396 227.779,261.08Z" style="fill:rgb(147,197,253);fill-rule:nonzero;"/>
                    </g>
                    <path d="M646.792,111.474C813.59,165.119 934.431,321.65 934.431,506.182C934.431,734.961 748.692,920.701 519.912,920.701C291.133,920.701 105.394,734.961 105.394,506.182C105.394,321.927 225.873,165.589 392.283,111.716C395.252,119.181 402.632,124.466 411.269,124.466L442.669,124.466L442.669,334.947C375.609,364.688 331.467,430.95 331.467,504.086C331.467,606.448 416.003,689.714 519.909,689.714C623.814,689.714 708.353,606.448 708.353,504.086C708.353,431.784 664.9,365.804 598.849,335.7L598.849,124.46L627.729,124.46C636.443,124.46 643.886,119.063 646.792,111.474Z" style="fill:rgb(239,68,68);"/>
                </g>
                <g transform="matrix(1.98263,0,0,1.98263,-423.062,17.9246)">
                    <g transform="matrix(144,0,0,144,418.82,356.175)">
                        <path d="M0.084,-0L0.084,-0.75L0.417,-0.75C0.463,-0.75 0.502,-0.734 0.535,-0.701C0.567,-0.668 0.584,-0.629 0.584,-0.584L0.584,-0.538C0.584,-0.501 0.571,-0.465 0.545,-0.431C0.52,-0.396 0.477,-0.379 0.417,-0.379L0.5,-0.379C0.523,-0.379 0.543,-0.371 0.559,-0.354C0.575,-0.338 0.584,-0.318 0.584,-0.295L0.584,-0L0.417,-0L0.417,-0.25C0.417,-0.273 0.409,-0.293 0.392,-0.309C0.376,-0.325 0.356,-0.334 0.334,-0.334L0.25,-0.334L0.25,-0L0.084,-0ZM0.25,-0.416L0.334,-0.416C0.356,-0.416 0.376,-0.425 0.392,-0.441C0.409,-0.458 0.417,-0.477 0.417,-0.5L0.417,-0.584C0.417,-0.606 0.409,-0.626 0.392,-0.642C0.376,-0.658 0.356,-0.666 0.334,-0.666L0.25,-0.666L0.25,-0.416Z" style="fill:rgb(239,68,68);fill-rule:nonzero;"/>
                    </g>
                    <g transform="matrix(144,0,0,144,514.782,356.175)">
                        <path d="M0.084,-0L0.084,-0.75L0.417,-0.75C0.463,-0.75 0.502,-0.734 0.535,-0.701C0.567,-0.668 0.584,-0.629 0.584,-0.584L0.584,-0.166C0.584,-0.121 0.567,-0.082 0.535,-0.049C0.502,-0.016 0.463,-0 0.417,-0L0.084,-0ZM0.25,-0.084L0.334,-0.084C0.357,-0.084 0.376,-0.092 0.393,-0.108C0.409,-0.125 0.417,-0.144 0.417,-0.166L0.417,-0.584C0.417,-0.606 0.409,-0.626 0.392,-0.642C0.376,-0.658 0.356,-0.666 0.334,-0.666L0.25,-0.666L0.25,-0.084Z" style="fill:rgb(239,68,68);fill-rule:nonzero;"/>
                    </g>
                    <g transform="matrix(144,0,0,144,610.745,356.175)">
                        <rect x="0.166" y="-0.75" width="0.167" height="0.75" style="fill:rgb(239,68,68);fill-rule:nonzero;"/>
                    </g>
                </g>
            </g>
            <g transform="matrix(1,0,0,1,67.0655,-0.335247)">
                <g transform="matrix(1.23978,0,0,1.23978,215.66,978.288)">
                    <g transform="matrix(230.282,0,0,230.282,0,0)">
                        <path d="M0.084,-0L0.084,-0.75L0.25,-0.75L0.25,-0.084L0.5,-0.084L0.5,-0L0.084,-0Z" style="fill:rgb(147,197,253);fill-rule:nonzero;"/>
                    </g>
                </g>
                <g transform="matrix(1.0493,0,0,1.0493,567.947,979.109)">
                    <g transform="matrix(272.086,0,0,272.086,0,0)">
                        <path d="M0.084,-0L0.084,-0.75L0.417,-0.75C0.463,-0.75 0.502,-0.734 0.535,-0.701C0.567,-0.668 0.584,-0.629 0.584,-0.584L0.584,-0.541C0.584,-0.493 0.57,-0.454 0.542,-0.427C0.514,-0.399 0.473,-0.382 0.417,-0.375C0.473,-0.375 0.514,-0.358 0.542,-0.325C0.57,-0.291 0.584,-0.253 0.584,-0.209L0.584,-0.166C0.584,-0.121 0.567,-0.082 0.534,-0.049C0.501,-0.016 0.462,-0 0.417,-0L0.084,-0ZM0.25,-0.416L0.334,-0.416C0.356,-0.416 0.376,-0.425 0.392,-0.441C0.409,-0.458 0.417,-0.477 0.417,-0.5L0.417,-0.584C0.417,-0.606 0.409,-0.626 0.392,-0.642C0.376,-0.658 0.356,-0.666 0.334,-0.666L0.25,-0.666L0.25,-0.416ZM0.25,-0.084L0.334,-0.084C0.356,-0.084 0.376,-0.092 0.392,-0.108C0.409,-0.125 0.417,-0.144 0.417,-0.166L0.417,-0.25C0.417,-0.306 0.389,-0.334 0.334,-0.334L0.25,-0.334L0.25,-0.084Z" style="fill:rgb(147,197,253);fill-rule:nonzero;"/>
                    </g>
                </g>
                <g transform="matrix(1.0493,0,0,1.0493,637.965,221.307)">
                    <g transform="matrix(272.086,0,0,272.086,108.638,721.786)">
                        <path d="M0.5,-0.584L0.417,-0.584C0.41,-0.639 0.384,-0.667 0.338,-0.667C0.309,-0.667 0.287,-0.66 0.272,-0.646C0.257,-0.632 0.25,-0.611 0.25,-0.583C0.25,-0.562 0.258,-0.543 0.275,-0.525L0.451,-0.326C0.484,-0.29 0.5,-0.251 0.5,-0.209L0.5,-0.166C0.5,-0.121 0.484,-0.082 0.451,-0.049C0.419,-0.016 0.379,-0 0.334,-0L0.25,-0C0.195,-0 0.153,-0.014 0.125,-0.042C0.098,-0.07 0.084,-0.111 0.084,-0.166L0.167,-0.166C0.167,-0.161 0.166,-0.156 0.166,-0.153C0.166,-0.13 0.175,-0.113 0.193,-0.101C0.21,-0.089 0.229,-0.084 0.25,-0.084C0.28,-0.084 0.301,-0.091 0.314,-0.105C0.327,-0.119 0.334,-0.14 0.334,-0.168C0.334,-0.189 0.325,-0.208 0.309,-0.226L0.132,-0.424C0.1,-0.46 0.084,-0.499 0.084,-0.541L0.084,-0.584C0.084,-0.629 0.1,-0.668 0.132,-0.701C0.165,-0.734 0.204,-0.75 0.25,-0.75L0.334,-0.75C0.438,-0.75 0.493,-0.695 0.5,-0.584Z" style="fill:rgb(147,197,253);fill-rule:nonzero;"/>
                    </g>
                </g>
                <g transform="matrix(1.0493,0,0,1.0493,379.876,978.407)">
                    <g transform="matrix(272.086,0,0,272.086,0,0)">
                        <path d="M0.084,-0L0.084,-0.584C0.084,-0.629 0.1,-0.668 0.133,-0.701C0.165,-0.734 0.204,-0.75 0.25,-0.75L0.417,-0.75C0.463,-0.75 0.502,-0.734 0.535,-0.701C0.567,-0.668 0.584,-0.629 0.584,-0.584L0.584,-0L0.417,-0L0.417,-0.334L0.25,-0.334L0.25,-0L0.084,-0ZM0.25,-0.416L0.417,-0.416L0.417,-0.584C0.417,-0.606 0.409,-0.626 0.392,-0.642C0.376,-0.658 0.356,-0.666 0.334,-0.666C0.311,-0.666 0.291,-0.658 0.275,-0.642C0.258,-0.626 0.25,-0.606 0.25,-0.584L0.25,-0.416Z" style="fill:rgb(147,197,253);fill-rule:nonzero;"/>
                    </g>
                </g>
            </g>
        </g>
    </g>
</svg>
